:SAMPLES-PER-SECOND 30
:FULLY-SPECIFIED
:DEGREES
209
root  -59.9364 31.6558 -35.5103 175.797 -30.6959 177.695
RightUpLeg  -19.9972 -8.51913 12.3782
RightLeg  38.5827 -6.48959 -4.526
RightFoot  -11.1934 0.0789448 1.18323
RightToes  8.58849 0.0202205 0.0777519
Spine  7.75132 -3.66643 0.631742
Spine1  13.5812 -8.1023 1.12617
HEad  43.8782 -31.0376 22.0055
LeftShoulder1  0 -2.42657e-020 -4.95415e-022
LeftArm  -8.34704 -11.2893 -89.8824
LeftForeArm  -156.083 -24.4109 -4.15918
LeftHand  11.7816 -28.124 -45.1551
RightShoulder  0 2.42657e-020 1.07489e-018
RightArm  -67.1519 5.94949 82.1583
RightForeArm  70.1881 6.42221 1.07199
RightHand  0.879009 19.248 5.5522
LeftUpLeg  -27.942 -9.8096 4.92001
LeftLeg  79.9939 -1.50727 -6.19233
LeftFoot  9.11571 0.120673 -1.51368
LeftToes  -17.9983 1.18758e-006 1.19596e-007
210
root  -59.9968 32.261 -36.4508 176.486 -27.7351 177.316
RightUpLeg  -15.4853 -6.69956 12.523
RightLeg  32.3902 -5.66583 -3.10482
RightFoot  -9.05191 0.0268253 0.716489
RightToes  7.78256 0.0216078 0.074725
Spine  7.20241 -3.96553 -0.1648
Spine1  12.8631 -8.62993 0.0710272
HEad  44.2553 -29.3627 21.4855
LeftShoulder1  0 -2.42657e-020 -4.95415e-022
LeftArm  -10.49 -10.1659 -87.584
LeftForeArm  -159.92 -26.3933 -4.58171
LeftHand  11.8415 -28.6318 -44.6109
RightShoulder  0 2.42657e-020 1.07489e-018
RightArm  -54.3213 -0.648288 85.6072
RightForeArm  59.7892 13.4506 2.37049
RightHand  -0.170889 21.8773 -0.514319
LeftUpLeg  -29.2127 -13.5955 5.34393
LeftLeg  70.1331 -2.00376 -4.60277
LeftFoot  6.0971 0.0505667 -0.949464
LeftToes  -15.4019 1.18758e-006 1.19596e-007
211
root  -60.0659 32.7661 -37.316 177.717 -23.4902 176.351
RightUpLeg  -11.3098 -3.65217 12.1679
RightLeg  26.2063 -4.58739 -1.90415
RightFoot  -6.9742 -0.000115258 0.375695
RightToes  7.97491 0.0226055 0.0765935
Spine  6.45944 -3.94109 -1.0772
Spine1  11.848 -8.40706 -1.47299
HEad  43.8201 -26.0525 20.4154
LeftShoulder1  0 -2.42657e-020 -4.95415e-022
LeftArm  -11.7633 -8.90119 -84.1167
LeftForeArm  -160.928 -28.6636 -5.08426
LeftHand  11.7599 -28.6657 -44.284
RightShoulder  0 2.42657e-020 1.07489e-018
RightArm  -45.0918 -7.46353 87.5975
RightForeArm  50.7984 20.2241 3.69287
RightHand  -0.845313 22.0374 -3.97032
LeftUpLeg  -28.7059 -16.4708 5.19718
LeftLeg  56.7179 -0.901038 -1.20643
LeftFoot  5.03895 0.0181307 -0.412055
LeftToes  -15.7716 1.18758e-006 1.19596e-007
212
root  -60.1441 33.1076 -38.1268 178.938 -18.9532 175.639
RightUpLeg  -7.74515 -0.109678 11.9818
RightLeg  20.7595 -3.4095 -1.04794
RightFoot  -5.38147 -0.00916894 0.182475
RightToes  9.87745 0.0230917 0.0951109
Spine  5.60587 -3.82703 -1.87087
Spine1  10.6007 -7.99068 -3.02455
HEad  43.221 -22.3117 19.5413
LeftShoulder1  0 -2.42657e-020 -4.95415e-022
LeftArm  -13.4358 -7.22942 -79.9666
LeftForeArm  -160.646 -31.395 -5.71858
LeftHand  11.5228 -28.7112 -43.4103
RightShoulder  0 2.42657e-020 1.07489e-018
RightArm  -42.1392 -12.4309 88.6383
RightForeArm  46.5019 24.5677 4.59874
RightHand  -0.452571 22.3824 -1.91772
LeftUpLeg  -27.5461 -20.3227 5.44711
LeftLeg  41.9356 1.7059 1.33887
LeftFoot  5.16246 -0.00182513 0.0404761
LeftToes  -14.6489 1.18758e-006 1.19596e-007
213
root  -60.1752 33.2605 -38.8768 179.905 -13.5952 175.482
RightUpLeg  -5.10111 4.42379 12.3447
RightLeg  17.0506 -2.48494 -0.590159
RightFoot  -4.30392 -0.0106072 0.0952804
RightToes  10.8851 0.0229438 0.10494
Spine  4.85686 -3.47776 -2.3536
Spine1  9.35868 -7.13193 -4.06166
HEad  42.6765 -19.1602 18.8119
LeftShoulder1  0 -2.42657e-020 -4.95415e-022
LeftArm  -16.8419 -4.34352 -75.8917
LeftForeArm  -160.476 -37.0973 -7.17476
LeftHand  11.5651 -29.2591 -42.7865
RightShoulder  0 2.42657e-020 1.07489e-018
RightArm  -39.1306 -16.0434 88.2268
RightForeArm  42.8274 27.3886 5.22273
RightHand  0.209812 22.716 1.41488
LeftUpLeg  -26.5073 -23.301 6.49373
LeftLeg  27.8782 0.527648 0.233678
LeftFoot  3.9172 0.000726444 -0.0212518
LeftToes  -10.2574 1.18758e-006 1.19596e-007
214
root  -60.138 33.2532 -39.6001 -179.057 -7.64066 175.733
RightUpLeg  -3.64656 9.10937 13.1117
RightLeg  15.3916 -1.27656 -0.264014
RightFoot  -4.09079 -0.0130249 0.0128531
RightToes  11.5681 0.0220396 0.11161
Spine  4.41983 -3.04041 -2.66688
Spine1  8.54381 -6.16397 -4.69495
HEad  41.0282 -16.8075 18.8335
LeftShoulder1  0 -2.42657e-020 -4.95415e-022
LeftArm  -22.9393 -2.17073 -72.3334
LeftForeArm  -160.33 -41.4713 -8.45033
LeftHand  11.6954 -28.8335 -43.8239
RightShoulder  0 2.42657e-020 1.07489e-018
RightArm  -34.8292 -17.928 86.729
RightForeArm  40.4783 28.4672 5.47092
RightHand  0.675747 22.6199 3.74883
LeftUpLeg  -25.9962 -21.5273 6.51794
LeftLeg  16.5722 -5.07707 -1.16216
LeftFoot  4.16651 0.0145751 -0.400689
LeftToes  -13.1262 1.18758e-006 1.19596e-007
215
root  -60.0679 33.1709 -40.3614 -178.2 -1.4462 176.125
RightUpLeg  -2.39746 13.1634 13.8505
RightLeg  14.8175 0.744909 0.147186
RightFoot  -4.41568 -0.0199397 -0.13967
RightToes  12.0548 0.0202569 0.116366
Spine  4.12523 -2.48698 -2.94092
Spine1  7.95711 -4.98504 -5.21758
HEad  38.9237 -15.5123 19.4122
LeftShoulder1  0 -2.42657e-020 -4.95415e-022
LeftArm  -31.9675 -0.88807 -69.1896
LeftForeArm  -162.239 -43.6932 -9.16777
LeftHand  11.1704 -30.2312 -40.1817
RightShoulder  0 2.42657e-020 1.07489e-018
RightArm  -31.3983 -18.1058 85.0379
RightForeArm  41.165 26.3441 4.9923
RightHand  0.656709 22.709 3.64048
LeftUpLeg  -25.8277 -10.5306 2.62947
LeftLeg  9.87285 -18.3723 -1.95932
LeftFoot  5.85137 0.0998728 -1.954
LeftToes  -24.6284 1.18758e-006 1.19596e-007
